<?xml version="1.0" standalone="no"?>
<!DOCTYPE svg PUBLIC "-//W3C//DTD SVG 20010904//EN"
 "http://www.w3.org/TR/2001/REC-SVG-20010904/DTD/svg10.dtd">
<svg version="1.0" xmlns="http://www.w3.org/2000/svg"
 width="228.000000pt" height="228.000000pt" viewBox="0 0 228.000000 228.000000"
 preserveAspectRatio="xMidYMid meet">
<metadata>
Created by potrace 1.14, written by Peter Selinger 2001-2017
</metadata>
<g transform="translate(0.000000,228.000000) scale(0.100000,-0.100000)"
fill="#000000" stroke="none">
<path d="M873 1840 c-70 -15 -182 -57 -241 -92 -68 -40 -515 -479 -533 -523
-39 -95 -20 -192 48 -258 104 -99 257 -118 398 -49 124 61 214 173 272 336 21
61 80 137 133 172 81 54 200 72 302 46 47 -12 130 -65 162 -103 14 -16 28 -29
33 -29 17 0 74 61 88 95 20 45 19 109 -1 151 -43 91 -235 214 -385 247 -74 16
-213 20 -276 7z"/>
<path d="M1815 1362 c-152 -52 -250 -154 -321 -333 -32 -80 -47 -103 -99 -154
-95 -95 -207 -124 -339 -90 -64 17 -100 38 -162 97 l-41 39 -32 -27 c-93 -78
-94 -205 -3 -294 208 -201 537 -249 798 -117 100 51 117 66 352 300 228 227
253 261 254 347 1 168 -223 296 -407 232z"/>
<path d="M1093 1320 c-85 -20 -147 -106 -146 -203 1 -171 208 -260 338 -145
57 50 82 141 58 212 -37 110 -135 164 -250 136z"/>
</g>
</svg>
